<svg width="51" height="47" viewBox="0 0 51 47" fill="none" xmlns="http://www.w3.org/2000/svg">
<path d="M44.8864 11.0278V39.3833C44.8864 42.6344 42.5518 45.25 39.65 45.25H10.85C7.94818 45.25 5.61364 42.6344 5.61364 39.3833V11.0278M16.5227 20.8056H33.9773M4.74091 1.25H45.7591C46.6849 1.25 47.5729 1.66206 48.2275 2.39554C48.8822 3.12901 49.25 4.12382 49.25 5.16111V7.11667C49.25 7.63028 49.1597 8.13887 48.9843 8.61338C48.8088 9.0879 48.5517 9.51906 48.2275 9.88224C47.9034 10.2454 47.5185 10.5335 47.095 10.7301C46.6715 10.9266 46.2175 11.0278 45.7591 11.0278H4.74091C3.81506 11.0278 2.92714 10.6157 2.27246 9.88224C1.61779 9.14876 1.25 8.15396 1.25 7.11667V5.16111C1.25 4.6475 1.3403 4.13891 1.51573 3.66439C1.69116 3.18988 1.9483 2.75872 2.27246 2.39554C2.92714 1.66206 3.81506 1.25 4.74091 1.25Z" stroke="white" stroke-width="2.5" stroke-miterlimit="10" stroke-linecap="round" stroke-linejoin="round"/>
</svg>
