<svg width="45" height="46" viewBox="0 0 45 46" fill="none" xmlns="http://www.w3.org/2000/svg">
<path d="M33.4275 39.5675L40.5275 32.5775L38.9625 31.01L33.4275 36.4675L31.04 34.03L29.4725 35.61L33.4275 39.5675ZM6.925 11.8275H33.08V9.3275H6.9225L6.925 11.8275ZM35 45.29C32.215 45.29 29.8525 44.3192 27.9125 42.3775C25.9708 40.4375 25 38.075 25 35.29C25 32.505 25.9708 30.1417 27.9125 28.2C29.8542 26.2583 32.2167 25.2883 35 25.29C37.7833 25.2917 40.1467 26.2617 42.09 28.2C44.0333 30.1383 45.0033 32.5017 45 35.29C45 38.0733 44.03 40.4358 42.09 42.3775C40.1467 44.3192 37.7833 45.29 35 45.29ZM0 41.9225V4.04C0 2.92 0.393334 1.96667 1.18 1.18C1.96667 0.393334 2.92 0 4.04 0H35.9625C37.0792 0 38.0317 0.393334 38.82 1.18C39.6067 1.96667 40 2.92 40 4.04V18.9C39.5933 18.75 39.19 18.6217 38.79 18.515C38.3883 18.4083 37.9583 18.325 37.5 18.265V4.04C37.5 3.655 37.34 3.30167 37.02 2.98C36.7 2.65833 36.3467 2.49833 35.96 2.5H4.04C3.655 2.5 3.30167 2.66 2.98 2.98C2.65833 3.3 2.49833 3.65333 2.5 4.04V37.625H18.36C18.4733 38.3083 18.62 38.9767 18.8 39.63C18.9817 40.2833 19.2342 40.9067 19.5575 41.5L19.4725 41.585L16.635 39.52L13.27 41.9225L9.905 39.52L6.54 41.9225L3.1725 39.52L0 41.9225ZM6.925 30.6725H18.6975C18.7908 30.2142 18.9058 29.785 19.0425 29.385C19.1792 28.985 19.3392 28.5808 19.5225 28.1725H6.925V30.6725ZM6.925 21.25H25.2C26.0167 20.605 26.8917 20.0675 27.825 19.6375C28.7583 19.2058 29.7558 18.91 30.8175 18.75H6.9225L6.925 21.25Z" fill="white"/>
</svg>
