<svg width="24" height="24" viewBox="0 0 24 24" fill="none" xmlns="http://www.w3.org/2000/svg">
<path d="M17.275 18.125L16.85 17.7C16.7 17.55 16.521 17.475 16.313 17.475C16.105 17.475 15.9257 17.55 15.775 17.7C15.6243 17.85 15.5493 18.025 15.55 18.225C15.5507 18.425 15.6257 18.6 15.775 18.75L16.75 19.725C16.9 19.875 17.075 19.95 17.275 19.95C17.475 19.95 17.65 19.875 17.8 19.725L20.225 17.35C20.375 17.2 20.45 17.0207 20.45 16.812C20.45 16.6033 20.375 16.4243 20.225 16.275C20.075 16.1257 19.8957 16.0507 19.687 16.05C19.4783 16.0493 19.2993 16.1243 19.15 16.275L17.275 18.125ZM17 9C17.2833 9 17.521 8.904 17.713 8.712C17.905 8.52 18.0007 8.28267 18 8C17.9993 7.71733 17.9033 7.48 17.712 7.288C17.5207 7.096 17.2833 7 17 7H7C6.71667 7 6.47933 7.096 6.288 7.288C6.09667 7.48 6.00067 7.71733 6 8C5.99933 8.28267 6.09533 8.52033 6.288 8.713C6.48067 8.90567 6.718 9.00133 7 9H17ZM18 23C16.6167 23 15.4377 22.5123 14.463 21.537C13.4883 20.5617 13.0007 19.3827 13 18C12.9993 16.6173 13.487 15.4383 14.463 14.463C15.439 13.4877 16.618 13 18 13C19.382 13 20.5613 13.4877 21.538 14.463C22.5147 15.4383 23.002 16.6173 23 18C22.998 19.3827 22.5103 20.562 21.537 21.538C20.5637 22.514 19.3847 23.0013 18 23ZM3 21.875V5C3 4.45 3.196 3.97933 3.588 3.588C3.98 3.19667 4.45067 3.00067 5 3H19C19.55 3 20.021 3.196 20.413 3.588C20.805 3.98 21.0007 4.45067 21 5V10.5C21 10.7833 20.8833 11.0127 20.65 11.188C20.4167 11.3633 20.1583 11.409 19.875 11.325C19.4083 11.2083 18.9333 11.125 18.45 11.075C17.9667 11.025 17.4833 11 17 11H7C6.71667 11 6.47933 11.096 6.288 11.288C6.09667 11.48 6.00067 11.7173 6 12C5.99933 12.2827 6.09533 12.5203 6.288 12.713C6.48067 12.9057 6.718 13.0013 7 13H13.1C12.8167 13.2833 12.5543 13.5917 12.313 13.925C12.0717 14.2583 11.859 14.6167 11.675 15H7C6.71667 15 6.47933 15.096 6.288 15.288C6.09667 15.48 6.00067 15.7173 6 16C5.99933 16.2827 6.09533 16.5203 6.288 16.713C6.48067 16.9057 6.718 17.0013 7 17H11.075C11.0417 17.1667 11.021 17.3293 11.013 17.488C11.005 17.6467 11.0007 17.8173 11 18C11 18.4333 11.0417 18.8583 11.125 19.275C11.2083 19.6917 11.3167 20.1083 11.45 20.525C11.5333 20.7083 11.5 20.8543 11.35 20.963C11.2 21.0717 11.0583 21.059 10.925 20.925L10.85 20.85C10.75 20.75 10.6333 20.7 10.5 20.7C10.3667 20.7 10.25 20.75 10.15 20.85L9.35 21.65C9.25 21.75 9.13333 21.8 9 21.8C8.86667 21.8 8.75 21.75 8.65 21.65L7.85 20.85C7.75 20.75 7.63333 20.7 7.5 20.7C7.36667 20.7 7.25 20.75 7.15 20.85L6.35 21.65C6.25 21.75 6.13333 21.8 6 21.8C5.86667 21.8 5.75 21.75 5.65 21.65L4.85 20.85C4.75 20.75 4.63333 20.7 4.5 20.7C4.36667 20.7 4.25 20.75 4.15 20.85L3.35 21.65L3 21.875Z" fill="#10847E"/>
</svg>
