<svg width="50" height="50" viewBox="0 0 50 50" fill="none" xmlns="http://www.w3.org/2000/svg">
<path fill-rule="evenodd" clip-rule="evenodd" d="M15.9792 17.5C20.7324 17.5 24.5833 13.5837 24.5833 8.75C24.5833 3.91625 20.7324 0 15.9792 0C11.226 0 7.375 3.91625 7.375 8.75C7.375 13.5837 11.226 17.5 15.9792 17.5ZM22.125 8.75C22.125 12.2037 19.3754 15 15.9792 15C12.583 15 9.83333 12.2037 9.83333 8.75C9.83333 5.29625 12.583 2.5 15.9792 2.5C19.3754 2.5 22.125 5.29625 22.125 8.75Z" fill="white"/>
<path d="M2.45833 26.6663C2.45833 26.0763 2.77546 25.4263 3.62112 24.7213C4.46679 24.0163 5.70087 23.38 7.17096 22.8487C10.1062 21.7862 13.6536 21.25 15.9792 21.25C18.3047 21.25 21.8521 21.785 24.7874 22.8487C25.2004 22.9987 25.5933 23.1558 25.9661 23.32C26.7299 22.7283 27.5419 22.2088 28.4024 21.7613C27.5097 21.2583 26.5762 20.8342 25.6121 20.4938C22.404 19.3313 18.5764 18.75 15.9792 18.75C13.3819 18.75 9.55431 19.3313 6.34619 20.4938C4.74335 21.0738 3.21427 21.8275 2.06254 22.7888C0.909583 23.7488 0 25.0375 0 26.6663V33.75H19.8547C19.9858 32.8917 20.18 32.0583 20.4374 31.25H2.45833V26.6663Z" fill="white"/>
<path fill-rule="evenodd" clip-rule="evenodd" d="M31.9583 23.75C31.9583 23.4185 32.0878 23.1005 32.3183 22.8661C32.5489 22.6317 32.8615 22.5 33.1875 22.5H38.1042C38.4302 22.5 38.7428 22.6317 38.9733 22.8661C39.2038 23.1005 39.3333 23.4185 39.3333 23.75C39.3333 24.0815 39.2038 24.3995 38.9733 24.6339C38.7428 24.8683 38.4302 25 38.1042 25H36.875V27.5875C38.2983 27.797 39.6472 28.3661 40.7985 29.2425L42.512 27.5L42.1518 27.1338C41.9279 26.898 41.804 26.5822 41.8068 26.2545C41.8096 25.9268 41.9389 25.6132 42.1668 25.3815C42.3947 25.1497 42.703 25.0183 43.0253 25.0154C43.3475 25.0126 43.658 25.1386 43.8899 25.3662L46.3482 27.8662C46.5721 28.102 46.696 28.4178 46.6932 28.7455C46.6904 29.0732 46.5611 29.3868 46.3332 29.6185C46.1053 29.8503 45.797 29.9817 45.4747 29.9846C45.1525 29.9874 44.842 29.8614 44.6101 29.6338L44.25 29.2675L42.5365 31.01C43.3984 32.1808 43.9579 33.5526 44.164 35H46.7083V33.75C46.7083 33.4185 46.8378 33.1005 47.0683 32.8661C47.2989 32.6317 47.6115 32.5 47.9375 32.5C48.2635 32.5 48.5761 32.6317 48.8067 32.8661C49.0372 33.1005 49.1667 33.4185 49.1667 33.75V38.75C49.1667 39.0815 49.0372 39.3995 48.8067 39.6339C48.5761 39.8683 48.2635 40 47.9375 40C47.6115 40 47.2989 39.8683 47.0683 39.6339C46.8378 39.3995 46.7083 39.0815 46.7083 38.75V37.5H44.164C44.001 38.6465 43.6158 39.7486 43.0307 40.7425L45.4792 43.2325L45.8393 42.8662C46.0711 42.6386 46.3816 42.5126 46.7039 42.5154C47.0262 42.5183 47.3345 42.6497 47.5624 42.8815C47.7903 43.1132 47.9195 43.4268 47.9223 43.7545C47.9251 44.0822 47.8013 44.398 47.5774 44.6338L45.119 47.1338C44.8872 47.3614 44.5767 47.4874 44.2544 47.4846C43.9321 47.4817 43.6238 47.3503 43.3959 47.1185C43.1681 46.8868 43.0388 46.5732 43.036 46.2455C43.0332 45.9178 43.1571 45.602 43.381 45.3662L43.7411 45L41.4696 42.6912C40.1931 43.8853 38.5916 44.6591 36.875 44.9113V47.5H38.1042C38.4302 47.5 38.7428 47.6317 38.9733 47.8661C39.2038 48.1005 39.3333 48.4185 39.3333 48.75C39.3333 49.0815 39.2038 49.3995 38.9733 49.6339C38.7428 49.8683 38.4302 50 38.1042 50H33.1875C32.8615 50 32.5489 49.8683 32.3183 49.6339C32.0878 49.3995 31.9583 49.0815 31.9583 48.75C31.9583 48.4185 32.0878 48.1005 32.3183 47.8661C32.5489 47.6317 32.8615 47.5 33.1875 47.5H34.4167V44.9125C32.9934 44.703 31.6444 44.1339 30.4932 43.2575L28.7797 45L29.1399 45.3662C29.3638 45.602 29.4877 45.9178 29.4848 46.2455C29.482 46.5732 29.3528 46.8868 29.1249 47.1185C28.897 47.3503 28.5887 47.4817 28.2664 47.4846C27.9441 47.4874 27.6336 47.3614 27.4018 47.1338L24.9435 44.6338C24.7196 44.398 24.5957 44.0822 24.5985 43.7545C24.6013 43.4268 24.7306 43.1132 24.9585 42.8815C25.1863 42.6497 25.4946 42.5183 25.8169 42.5154C26.1392 42.5126 26.4497 42.6386 26.6815 42.8662L27.0417 43.2325L28.7551 41.49C27.8933 40.3192 27.3338 38.9474 27.1277 37.5H24.5833V38.75C24.5833 39.0815 24.4538 39.3995 24.2233 39.6339C23.9928 39.8683 23.6802 40 23.3542 40C23.0282 40 22.7155 39.8683 22.485 39.6339C22.2545 39.3995 22.125 39.0815 22.125 38.75V33.75C22.125 33.4185 22.2545 33.1005 22.485 32.8661C22.7155 32.6317 23.0282 32.5 23.3542 32.5C23.6802 32.5 23.9928 32.6317 24.2233 32.8661C24.4538 33.1005 24.5833 33.4185 24.5833 33.75V35H27.1277C27.3338 33.5526 27.8933 32.1808 28.7551 31.01L27.0417 29.2675L26.6815 29.6338C26.4497 29.8614 26.1392 29.9874 25.8169 29.9846C25.4946 29.9817 25.1863 29.8503 24.9585 29.6185C24.7306 29.3868 24.6013 29.0732 24.5985 28.7455C24.5957 28.4178 24.7196 28.102 24.9435 27.8662L27.4018 25.3662C27.6336 25.1386 27.9441 25.0126 28.2664 25.0154C28.5887 25.0183 28.897 25.1497 29.1249 25.3815C29.3528 25.6132 29.482 25.9268 29.4848 26.2545C29.4877 26.5822 29.3638 26.898 29.1399 27.1338L28.7797 27.5L30.4932 29.2425C31.6444 28.3661 32.9934 27.797 34.4167 27.5875V25H33.1875C32.8615 25 32.5489 24.8683 32.3183 24.6339C32.0878 24.3995 31.9583 24.0815 31.9583 23.75ZM29.5 36.25C29.5 37.9076 30.1475 39.4973 31.3001 40.6694C32.4526 41.8415 34.0159 42.5 35.6458 42.5C37.2758 42.5 38.839 41.8415 39.9916 40.6694C41.1442 39.4973 41.7917 37.9076 41.7917 36.25C41.7917 34.5924 41.1442 33.0027 39.9916 31.8306C38.839 30.6585 37.2758 30 35.6458 30C34.0159 30 32.4526 30.6585 31.3001 31.8306C30.1475 33.0027 29.5 34.5924 29.5 36.25Z" fill="white"/>
</svg>
