<svg width="53" height="53" viewBox="0 0 53 53" fill="none" xmlns="http://www.w3.org/2000/svg">
<path d="M33.124 3.5625L33.4268 3.57812C34.1272 3.64952 34.7859 3.95972 35.2881 4.46191C35.7903 4.96411 36.1005 5.62278 36.1719 6.32324L36.1875 6.62598V8.53125H41.4053L41.708 8.54688C42.4085 8.61827 43.0671 8.92847 43.5693 9.43066C44.0715 9.93286 44.3817 10.5915 44.4531 11.292L44.4688 11.5947V29.5625H41.6562V11.3438H36.1875V16.3125H16.8125V11.3438H11.3438V46.625H26.25V49.4375H11.5947C10.783 49.4351 10.0046 49.112 9.43066 48.5381C8.92847 48.0359 8.61827 47.3772 8.54688 46.6768L8.53125 46.374V11.5947C8.53367 10.783 8.85672 10.0046 9.43066 9.43066C9.93286 8.92847 10.5915 8.61827 11.292 8.54688L11.5947 8.53125H16.8125V6.62598C16.8149 5.8143 17.138 5.03586 17.7119 4.46191C18.2141 3.95972 18.8728 3.64952 19.5732 3.57812L19.876 3.5625H33.124ZM19.625 13.5H33.375V6.375H19.625V13.5Z" fill="white" stroke="#128680" stroke-width="0.5"/>
<path d="M38.4275 47.2775L45.5275 40.2875L43.9625 38.72L38.4275 44.1775L36.04 41.74L34.4725 43.32L38.4275 47.2775ZM40 53C37.215 53 34.8525 52.0292 32.9125 50.0875C30.9708 48.1475 30 45.785 30 43C30 40.215 30.9708 37.8517 32.9125 35.91C34.8542 33.9683 37.2167 32.9983 40 33C42.7833 33.0017 45.1467 33.9717 47.09 35.91C49.0333 37.8483 50.0033 40.2117 50 43C50 45.7833 49.03 48.1458 47.09 50.0875C45.1467 52.0292 42.7833 53 40 53Z" fill="white"/>
</svg>
