<svg width="20" height="20" viewBox="0 0 20 20" fill="none" xmlns="http://www.w3.org/2000/svg">
<path d="M5.4535 1.38677C5.40995 1.34307 5.3582 1.3084 5.30122 1.28474C5.24425 1.26108 5.18316 1.2489 5.12146 1.2489C5.05977 1.2489 4.99868 1.26108 4.9417 1.28474C4.88473 1.3084 4.83298 1.34307 4.78943 1.38677L2.30193 3.85982L1.41521 2.99576C1.37166 2.95206 1.31992 2.91738 1.26294 2.89372C1.20596 2.87006 1.14488 2.85789 1.08318 2.85789C1.02149 2.85789 0.960401 2.87006 0.903423 2.89372C0.846446 2.91738 0.794699 2.95206 0.751151 2.99576L0.13787 3.60982C0.0941697 3.65337 0.0594961 3.70511 0.0358373 3.76209C0.0121786 3.81907 0 3.88016 0 3.94185C0 4.00354 0.0121786 4.06463 0.0358373 4.12161C0.0594961 4.17859 0.0941697 4.23033 0.13787 4.27388L1.99685 6.12544C2.08964 6.21365 2.21278 6.26283 2.3408 6.26283C2.46882 6.26283 2.59195 6.21365 2.68474 6.12544L3.29373 5.51529L6.11404 2.69536C6.20192 2.60742 6.25157 2.48838 6.25223 2.36406C6.25288 2.23974 6.20449 2.12017 6.11756 2.0313L5.4535 1.38677ZM5.4535 7.60513C5.40995 7.56143 5.3582 7.52676 5.30122 7.5031C5.24425 7.47944 5.18316 7.46726 5.12146 7.46726C5.05977 7.46726 4.99868 7.47944 4.9417 7.5031C4.88473 7.52676 4.83298 7.56143 4.78943 7.60513L2.30193 10.0942L1.41521 9.23091C1.37166 9.18721 1.31992 9.15254 1.26294 9.12888C1.20596 9.10522 1.14488 9.09304 1.08318 9.09304C1.02149 9.09304 0.960401 9.10522 0.903423 9.12888C0.846446 9.15254 0.794699 9.18721 0.751151 9.23091L0.13787 9.8438C0.0941697 9.88735 0.0594961 9.9391 0.0358373 9.99607C0.0121786 10.0531 0 10.1141 0 10.1758C0 10.2375 0.0121786 10.2986 0.0358373 10.3556C0.0594961 10.4126 0.0941697 10.4643 0.13787 10.5079L1.99217 12.3633C2.08489 12.4515 2.20796 12.5007 2.33592 12.5007C2.46388 12.5007 2.58694 12.4515 2.67967 12.3633L3.29295 11.7504L6.11326 8.92935C6.2008 8.84202 6.25028 8.72364 6.25094 8.59999C6.2516 8.47635 6.20338 8.35745 6.11678 8.26919L5.4535 7.60513ZM2.49998 14.3751C1.46521 14.3751 0.601932 15.2149 0.601932 16.2501C0.601932 17.2852 1.46599 18.1251 2.49998 18.1251C2.99726 18.1251 3.47417 17.9275 3.8258 17.5759C4.17743 17.2242 4.37498 16.7473 4.37498 16.2501C4.37498 15.7528 4.17743 15.2759 3.8258 14.9242C3.47417 14.5726 2.99726 14.3751 2.49998 14.3751ZM19.375 15.0001H8.12498C7.95922 15.0001 7.80025 15.0659 7.68304 15.1831C7.56583 15.3003 7.49998 15.4593 7.49998 15.6251V16.8751C7.49998 17.0408 7.56583 17.1998 7.68304 17.317C7.80025 17.4342 7.95922 17.5001 8.12498 17.5001H19.375C19.5407 17.5001 19.6997 17.4342 19.8169 17.317C19.9341 17.1998 20 17.0408 20 16.8751V15.6251C20 15.4593 19.9341 15.3003 19.8169 15.1831C19.6997 15.0659 19.5407 15.0001 19.375 15.0001ZM19.375 2.50005H8.12498C7.95922 2.50005 7.80025 2.5659 7.68304 2.68311C7.56583 2.80032 7.49998 2.95929 7.49998 3.12505V4.37505C7.49998 4.54081 7.56583 4.69978 7.68304 4.81699C7.80025 4.9342 7.95922 5.00005 8.12498 5.00005H19.375C19.5407 5.00005 19.6997 4.9342 19.8169 4.81699C19.9341 4.69978 20 4.54081 20 4.37505V3.12505C20 2.95929 19.9341 2.80032 19.8169 2.68311C19.6997 2.5659 19.5407 2.50005 19.375 2.50005ZM19.375 8.75005H8.12498C7.95922 8.75005 7.80025 8.8159 7.68304 8.93311C7.56583 9.05032 7.49998 9.20929 7.49998 9.37505V10.6251C7.49998 10.7908 7.56583 10.9498 7.68304 11.067C7.80025 11.1842 7.95922 11.2501 8.12498 11.2501H19.375C19.5407 11.2501 19.6997 11.1842 19.8169 11.067C19.9341 10.9498 20 10.7908 20 10.6251V9.37505C20 9.20929 19.9341 9.05032 19.8169 8.93311C19.6997 8.8159 19.5407 8.75005 19.375 8.75005Z" fill="#10847E"/>
</svg>
