<svg width="31" height="39" viewBox="0 0 31 39" fill="none" xmlns="http://www.w3.org/2000/svg">
<path fill-rule="evenodd" clip-rule="evenodd" d="M12.0761 33.4822L14.1763 33.6119L14.3076 38.8004C15.7515 39.5786 15.489 37.8924 15.489 36.9844C15.489 35.817 15.489 34.7793 15.489 33.6119C19.2956 33.4822 17.7204 34.7793 17.9829 23.3648L19.8206 22.5866C19.8206 23.6242 19.4268 25.4402 20.0831 26.2184L22.3146 26.3482L22.4459 31.5366H23.6272V26.3482C24.4148 26.2184 25.3336 26.3482 25.99 26.0887C26.515 25.1808 26.1212 20.3815 26.1212 18.9547C26.2525 18.0467 27.1713 17.2684 27.6964 16.7496C28.3527 16.101 28.7465 15.4525 29.2715 14.6742L30.0591 15.0633L29.6653 11.9503L26.6463 12.8583C27.04 13.5068 26.7775 12.988 27.3026 13.5068C26.6463 15.193 24.021 17.917 22.8397 18.8249C18.7705 22.1974 13.6513 24.0134 8.007 23.8837C3.41282 23.7539 2.62525 22.7163 0 22.0677C0.262525 22.7163 2.75651 23.3648 3.41282 23.7539L3.67535 26.2184H6.03807L6.16933 31.5366L7.35069 31.4069V26.3482L9.71341 26.0887L9.84468 24.6619H11.6824C11.6824 26.2184 11.6824 27.775 11.6824 29.3315C11.6824 30.4989 11.2886 33.0931 12.0761 33.4822Z" fill="black"/>
<path fill-rule="evenodd" clip-rule="evenodd" d="M12.0764 5.46476C11.2888 5.85389 11.6826 8.18868 11.6826 9.22636C11.6826 11.6909 11.4201 20.3815 11.6826 21.5489C12.9953 21.938 17.0644 20.3815 17.9832 19.7329C18.2457 18.1764 17.9832 14.2851 17.9832 12.4691C17.9832 4.8162 18.7708 5.46475 15.4892 5.33504C14.9642 2.74083 16.4081 -0.761352 14.3079 0.146622C14.1766 0.276332 14.1766 -0.112799 14.1766 1.31402V5.33504C13.7828 5.33504 13.5203 5.33504 13.1265 5.33504C12.3389 5.33504 12.4702 5.20533 12.0764 5.46476Z" fill="#0066FF"/>
<path fill-rule="evenodd" clip-rule="evenodd" d="M3.67506 12.8583C3.28127 13.8959 3.41253 18.9547 3.41253 20.5112C3.54379 21.6786 4.85642 21.6786 6.03778 21.8083C7.08788 21.938 8.66303 22.0677 9.71313 21.938C9.97565 21.03 9.97565 13.5068 9.71313 12.8583L7.3504 12.7285L7.21914 7.41041L6.03778 7.54012V12.7285L3.67506 12.8583Z" fill="#0066FF"/>
<path fill-rule="evenodd" clip-rule="evenodd" d="M22.3144 12.7285L20.0829 12.8583C19.5578 13.6365 19.8204 17.3981 19.8204 18.4358C21.133 18.4358 25.0709 14.1554 25.4646 12.7285H23.627V7.54012L22.4456 7.41041L22.3144 12.7285Z" fill="#0066FF"/>
<path fill-rule="evenodd" clip-rule="evenodd" d="M14.3076 38.8004L14.1763 33.6119L12.0761 33.4822L14.1763 33.7417V38.4112C14.1763 39.0598 14.1763 38.6707 14.3076 38.8004Z" fill="#97B8CA"/>
</svg>
