<svg width="155" height="45" viewBox="0 0 155 45" fill="none" xmlns="http://www.w3.org/2000/svg">
<path fill-rule="evenodd" clip-rule="evenodd" d="M12.0761 39.4822L14.1763 39.6119L14.3076 44.8004C15.7515 45.5786 15.489 43.8924 15.489 42.9844C15.489 41.817 15.489 40.7793 15.489 39.6119C19.2956 39.4822 17.7204 40.7793 17.9829 29.3648L19.8206 28.5866C19.8206 29.6242 19.4268 31.4402 20.0831 32.2184L22.3146 32.3482L22.4459 37.5366H23.6272V32.3482C24.4148 32.2184 25.3336 32.3482 25.99 32.0887C26.515 31.1808 26.1212 26.3815 26.1212 24.9547C26.2525 24.0467 27.1713 23.2684 27.6964 22.7496C28.3527 22.101 28.7465 21.4525 29.2715 20.6742L30.0591 21.0633L29.6653 17.9503L26.6463 18.8583C27.04 19.5068 26.7775 18.988 27.3026 19.5068C26.6463 21.193 24.021 23.917 22.8397 24.8249C18.7705 28.1974 13.6513 30.0134 8.007 29.8837C3.41282 29.7539 2.62525 28.7163 0 28.0677C0.262525 28.7163 2.75651 29.3648 3.41282 29.7539L3.67535 32.2184H6.03807L6.16933 37.5366L7.35069 37.4069V32.3482L9.71341 32.0887L9.84468 30.6619H11.6824C11.6824 32.2184 11.6824 33.775 11.6824 35.3315C11.6824 36.4989 11.2886 39.0931 12.0761 39.4822Z" fill="black"/>
<path fill-rule="evenodd" clip-rule="evenodd" d="M12.0764 11.4648C11.2888 11.8539 11.6826 14.1887 11.6826 15.2264C11.6826 17.6909 11.4201 26.3815 11.6826 27.5489C12.9953 27.938 17.0644 26.3815 17.9832 25.7329C18.2457 24.1764 17.9832 20.2851 17.9832 18.4691C17.9832 10.8162 18.7708 11.4648 15.4892 11.335C14.9642 8.74083 16.4081 5.23865 14.3079 6.14662C14.1766 6.27633 14.1766 5.8872 14.1766 7.31402V11.335C13.7828 11.335 13.5203 11.335 13.1265 11.335C12.3389 11.335 12.4702 11.2053 12.0764 11.4648Z" fill="#0066FF"/>
<path fill-rule="evenodd" clip-rule="evenodd" d="M3.67506 18.8583C3.28127 19.8959 3.41253 24.9547 3.41253 26.5112C3.54379 27.6786 4.85642 27.6786 6.03778 27.8083C7.08788 27.938 8.66303 28.0677 9.71313 27.938C9.97565 27.03 9.97565 19.5068 9.71313 18.8583L7.3504 18.7285L7.21914 13.4104L6.03778 13.5401V18.7285L3.67506 18.8583Z" fill="#0066FF"/>
<path fill-rule="evenodd" clip-rule="evenodd" d="M22.3144 18.7285L20.0829 18.8583C19.5578 19.6365 19.8204 23.3981 19.8204 24.4358C21.133 24.4358 25.0709 20.1554 25.4646 18.7285H23.627V13.5401L22.4456 13.4104L22.3144 18.7285Z" fill="#0066FF"/>
<path fill-rule="evenodd" clip-rule="evenodd" d="M14.3076 44.8004L14.1763 39.6119L12.0761 39.4822L14.1763 39.7417V44.4112C14.1763 45.0598 14.1763 44.6707 14.3076 44.8004Z" fill="#97B8CA"/>
<path d="M57.75 10.45V28H53.475V20.775H46.825V28H42.55V10.45H46.825V17.325H53.475V10.45H57.75ZM67.1861 28.175C65.9028 28.175 64.7528 27.9667 63.7361 27.55C62.7195 27.1333 61.9028 26.5167 61.2861 25.7C60.6861 24.8833 60.3695 23.9 60.3361 22.75H64.8861C64.9528 23.4 65.1778 23.9 65.5611 24.25C65.9445 24.5833 66.4445 24.75 67.0611 24.75C67.6945 24.75 68.1945 24.6083 68.5611 24.325C68.9278 24.025 69.1111 23.6167 69.1111 23.1C69.1111 22.6667 68.9611 22.3083 68.6611 22.025C68.3778 21.7417 68.0195 21.5083 67.5861 21.325C67.1695 21.1417 66.5695 20.9333 65.7861 20.7C64.6528 20.35 63.7278 20 63.0111 19.65C62.2945 19.3 61.6778 18.7833 61.1611 18.1C60.6445 17.4167 60.3861 16.525 60.3861 15.425C60.3861 13.7917 60.9778 12.5167 62.1611 11.6C63.3445 10.6667 64.8861 10.2 66.7861 10.2C68.7195 10.2 70.2778 10.6667 71.4611 11.6C72.6445 12.5167 73.2778 13.8 73.3611 15.45H68.7361C68.7028 14.8833 68.4945 14.4417 68.1111 14.125C67.7278 13.7917 67.2361 13.625 66.6361 13.625C66.1195 13.625 65.7028 13.7667 65.3861 14.05C65.0695 14.3167 64.9111 14.7083 64.9111 15.225C64.9111 15.7917 65.1778 16.2333 65.7111 16.55C66.2445 16.8667 67.0778 17.2083 68.2111 17.575C69.3445 17.9583 70.2611 18.325 70.9611 18.675C71.6778 19.025 72.2945 19.5333 72.8111 20.2C73.3278 20.8667 73.5861 21.725 73.5861 22.775C73.5861 23.775 73.3278 24.6833 72.8111 25.5C72.3111 26.3167 71.5778 26.9667 70.6111 27.45C69.6445 27.9333 68.5028 28.175 67.1861 28.175ZM80.492 24.7H86.092V28H76.217V10.45H80.492V24.7ZM97.7039 24.7H103.304V28H93.4289V10.45H97.7039V24.7ZM104.493 21C104.493 19.5667 104.76 18.3083 105.293 17.225C105.843 16.1417 106.585 15.3083 107.518 14.725C108.451 14.1417 109.493 13.85 110.643 13.85C111.626 13.85 112.485 14.05 113.218 14.45C113.968 14.85 114.543 15.375 114.943 16.025V14.05H119.218V28H114.943V26.025C114.526 26.675 113.943 27.2 113.193 27.6C112.46 28 111.601 28.2 110.618 28.2C109.485 28.2 108.451 27.9083 107.518 27.325C106.585 26.725 105.843 25.8833 105.293 24.8C104.76 23.7 104.493 22.4333 104.493 21ZM114.943 21.025C114.943 19.9583 114.643 19.1167 114.043 18.5C113.46 17.8833 112.743 17.575 111.893 17.575C111.043 17.575 110.318 17.8833 109.718 18.5C109.135 19.1 108.843 19.9333 108.843 21C108.843 22.0667 109.135 22.9167 109.718 23.55C110.318 24.1667 111.043 24.475 111.893 24.475C112.743 24.475 113.46 24.1667 114.043 23.55C114.643 22.9333 114.943 22.0917 114.943 21.025ZM126.586 16.025C126.986 15.375 127.561 14.85 128.311 14.45C129.061 14.05 129.919 13.85 130.886 13.85C132.036 13.85 133.077 14.1417 134.011 14.725C134.944 15.3083 135.677 16.1417 136.211 17.225C136.761 18.3083 137.036 19.5667 137.036 21C137.036 22.4333 136.761 23.7 136.211 24.8C135.677 25.8833 134.944 26.725 134.011 27.325C133.077 27.9083 132.036 28.2 130.886 28.2C129.902 28.2 129.044 28.0083 128.311 27.625C127.577 27.225 127.002 26.7 126.586 26.05V28H122.311V9.5H126.586V16.025ZM132.686 21C132.686 19.9333 132.386 19.1 131.786 18.5C131.202 17.8833 130.477 17.575 129.611 17.575C128.761 17.575 128.036 17.8833 127.436 18.5C126.852 19.1167 126.561 19.9583 126.561 21.025C126.561 22.0917 126.852 22.9333 127.436 23.55C128.036 24.1667 128.761 24.475 129.611 24.475C130.461 24.475 131.186 24.1667 131.786 23.55C132.386 22.9167 132.686 22.0667 132.686 21ZM144.954 28.2C143.737 28.2 142.654 27.9917 141.704 27.575C140.754 27.1583 140.004 26.5917 139.454 25.875C138.904 25.1417 138.595 24.325 138.529 23.425H142.754C142.804 23.9083 143.029 24.3 143.429 24.6C143.829 24.9 144.32 25.05 144.904 25.05C145.437 25.05 145.845 24.95 146.129 24.75C146.429 24.5333 146.579 24.2583 146.579 23.925C146.579 23.525 146.37 23.2333 145.954 23.05C145.537 22.85 144.862 22.6333 143.929 22.4C142.929 22.1667 142.095 21.925 141.429 21.675C140.762 21.4083 140.187 21 139.704 20.45C139.22 19.8833 138.979 19.125 138.979 18.175C138.979 17.375 139.195 16.65 139.629 16C140.079 15.3333 140.729 14.8083 141.579 14.425C142.445 14.0417 143.47 13.85 144.654 13.85C146.404 13.85 147.779 14.2833 148.779 15.15C149.795 16.0167 150.379 17.1667 150.529 18.6H146.579C146.512 18.1167 146.295 17.7333 145.929 17.45C145.579 17.1667 145.112 17.025 144.529 17.025C144.029 17.025 143.645 17.125 143.379 17.325C143.112 17.5083 142.979 17.7667 142.979 18.1C142.979 18.5 143.187 18.8 143.604 19C144.037 19.2 144.704 19.4 145.604 19.6C146.637 19.8667 147.479 20.1333 148.129 20.4C148.779 20.65 149.345 21.0667 149.829 21.65C150.329 22.2167 150.587 22.9833 150.604 23.95C150.604 24.7667 150.37 25.5 149.904 26.15C149.454 26.7833 148.795 27.2833 147.929 27.65C147.079 28.0167 146.087 28.2 144.954 28.2Z" fill="black"/>
<path d="M43.432 39.056C43.0587 39.056 42.7227 38.992 42.424 38.864C42.1253 38.7307 41.8907 38.544 41.72 38.304C41.5493 38.064 41.464 37.784 41.464 37.464H42.44C42.4613 37.704 42.5547 37.9013 42.72 38.056C42.8907 38.2107 43.128 38.288 43.432 38.288C43.7467 38.288 43.992 38.2133 44.168 38.064C44.344 37.9093 44.432 37.712 44.432 37.472C44.432 37.2853 44.376 37.1333 44.264 37.016C44.1573 36.8987 44.0213 36.808 43.856 36.744C43.696 36.68 43.472 36.6107 43.184 36.536C42.8213 36.44 42.5253 36.344 42.296 36.248C42.072 36.1467 41.88 35.992 41.72 35.784C41.56 35.576 41.48 35.2987 41.48 34.952C41.48 34.632 41.56 34.352 41.72 34.112C41.88 33.872 42.104 33.688 42.392 33.56C42.68 33.432 43.0133 33.368 43.392 33.368C43.9307 33.368 44.3707 33.504 44.712 33.776C45.0587 34.0427 45.2507 34.4107 45.288 34.88H44.28C44.264 34.6773 44.168 34.504 43.992 34.36C43.816 34.216 43.584 34.144 43.296 34.144C43.0347 34.144 42.8213 34.2107 42.656 34.344C42.4907 34.4773 42.408 34.6693 42.408 34.92C42.408 35.0907 42.4587 35.232 42.56 35.344C42.6667 35.4507 42.8 35.536 42.96 35.6C43.12 35.664 43.3387 35.7333 43.616 35.808C43.984 35.9093 44.2827 36.0107 44.512 36.112C44.7467 36.2133 44.944 36.3707 45.104 36.584C45.2693 36.792 45.352 37.072 45.352 37.424C45.352 37.7067 45.2747 37.9733 45.12 38.224C44.9707 38.4747 44.7493 38.6773 44.456 38.832C44.168 38.9813 43.8267 39.056 43.432 39.056ZM51.7641 34.52C52.1108 34.52 52.4201 34.592 52.6921 34.736C52.9695 34.88 53.1855 35.0933 53.3401 35.376C53.5001 35.6587 53.5801 36 53.5801 36.4V39H52.6761V36.536C52.6761 36.1413 52.5775 35.84 52.3801 35.632C52.1828 35.4187 51.9135 35.312 51.5721 35.312C51.2308 35.312 50.9588 35.4187 50.7561 35.632C50.5588 35.84 50.4601 36.1413 50.4601 36.536V39H49.5561V36.536C49.5561 36.1413 49.4575 35.84 49.2601 35.632C49.0628 35.4187 48.7935 35.312 48.4521 35.312C48.1108 35.312 47.8388 35.4187 47.6361 35.632C47.4388 35.84 47.3401 36.1413 47.3401 36.536V39H46.4281V34.592H47.3401V35.096C47.4895 34.9147 47.6788 34.7733 47.9081 34.672C48.1375 34.5707 48.3828 34.52 48.6441 34.52C48.9961 34.52 49.3108 34.5947 49.5881 34.744C49.8655 34.8933 50.0788 35.1093 50.2281 35.392C50.3615 35.1253 50.5695 34.9147 50.8521 34.76C51.1348 34.6 51.4388 34.52 51.7641 34.52ZM54.4366 36.776C54.4366 36.3333 54.5273 35.9413 54.7086 35.6C54.8953 35.2587 55.146 34.9947 55.4606 34.808C55.7806 34.616 56.1326 34.52 56.5166 34.52C56.8633 34.52 57.1646 34.5893 57.4206 34.728C57.682 34.8613 57.89 35.0293 58.0446 35.232V34.592H58.9646V39H58.0446V38.344C57.89 38.552 57.6793 38.7253 57.4126 38.864C57.146 39.0027 56.842 39.072 56.5006 39.072C56.122 39.072 55.7753 38.976 55.4606 38.784C55.146 38.5867 54.8953 38.3147 54.7086 37.968C54.5273 37.616 54.4366 37.2187 54.4366 36.776ZM58.0446 36.792C58.0446 36.488 57.9806 36.224 57.8526 36C57.73 35.776 57.5673 35.6053 57.3646 35.488C57.162 35.3707 56.9433 35.312 56.7086 35.312C56.474 35.312 56.2553 35.3707 56.0526 35.488C55.85 35.6 55.6846 35.768 55.5566 35.992C55.434 36.2107 55.3726 36.472 55.3726 36.776C55.3726 37.08 55.434 37.3467 55.5566 37.576C55.6846 37.8053 55.85 37.9813 56.0526 38.104C56.2606 38.2213 56.4793 38.28 56.7086 38.28C56.9433 38.28 57.162 38.2213 57.3646 38.104C57.5673 37.9867 57.73 37.816 57.8526 37.592C57.9806 37.3627 58.0446 37.096 58.0446 36.792ZM61.0745 35.232C61.2078 35.008 61.3838 34.8347 61.6025 34.712C61.8265 34.584 62.0905 34.52 62.3945 34.52V35.464H62.1625C61.8052 35.464 61.5332 35.5547 61.3465 35.736C61.1652 35.9173 61.0745 36.232 61.0745 36.68V39H60.1625V34.592H61.0745V35.232ZM64.2968 35.336V37.776C64.2968 37.9413 64.3341 38.0613 64.4088 38.136C64.4888 38.2053 64.6221 38.24 64.8088 38.24H65.3688V39H64.6488C64.2381 39 63.9235 38.904 63.7048 38.712C63.4861 38.52 63.3768 38.208 63.3768 37.776V35.336H62.8568V34.592H63.3768V33.496H64.2968V34.592H65.3688V35.336H64.2968ZM70.2494 36.688C70.2494 36.8533 70.2387 37.0027 70.2174 37.136H66.8494C66.876 37.488 67.0067 37.7707 67.2414 37.984C67.476 38.1973 67.764 38.304 68.1054 38.304C68.596 38.304 68.9427 38.0987 69.1454 37.688H70.1294C69.996 38.0933 69.7534 38.4267 69.4014 38.688C69.0547 38.944 68.6227 39.072 68.1054 39.072C67.684 39.072 67.3054 38.9787 66.9694 38.792C66.6387 38.6 66.3774 38.3333 66.1854 37.992C65.9987 37.6453 65.9054 37.2453 65.9054 36.792C65.9054 36.3387 65.996 35.9413 66.1774 35.6C66.364 35.2533 66.6227 34.9867 66.9534 34.8C67.2894 34.6133 67.6734 34.52 68.1054 34.52C68.5214 34.52 68.892 34.6107 69.2174 34.792C69.5427 34.9733 69.796 35.2293 69.9774 35.56C70.1587 35.8853 70.2494 36.2613 70.2494 36.688ZM69.2974 36.4C69.292 36.064 69.172 35.7947 68.9374 35.592C68.7027 35.3893 68.412 35.288 68.0654 35.288C67.7507 35.288 67.4814 35.3893 67.2574 35.592C67.0334 35.7893 66.9 36.0587 66.8574 36.4H69.2974ZM72.0589 35.232C72.1922 35.008 72.3682 34.8347 72.5869 34.712C72.8109 34.584 73.0749 34.52 73.3789 34.52V35.464H73.1469C72.7895 35.464 72.5175 35.5547 72.3309 35.736C72.1495 35.9173 72.0589 36.232 72.0589 36.68V39H71.1469V34.592H72.0589V35.232ZM77.2073 38.264H79.0873V39H76.2953V33.44H77.2073V38.264ZM79.546 36.776C79.546 36.3333 79.6367 35.9413 79.818 35.6C80.0047 35.2587 80.2553 34.9947 80.57 34.808C80.89 34.616 81.242 34.52 81.626 34.52C81.9727 34.52 82.274 34.5893 82.53 34.728C82.7913 34.8613 82.9993 35.0293 83.154 35.232V34.592H84.074V39H83.154V38.344C82.9993 38.552 82.7887 38.7253 82.522 38.864C82.2553 39.0027 81.9513 39.072 81.61 39.072C81.2313 39.072 80.8847 38.976 80.57 38.784C80.2553 38.5867 80.0047 38.3147 79.818 37.968C79.6367 37.616 79.546 37.2187 79.546 36.776ZM83.154 36.792C83.154 36.488 83.09 36.224 82.962 36C82.8393 35.776 82.6767 35.6053 82.474 35.488C82.2713 35.3707 82.0527 35.312 81.818 35.312C81.5833 35.312 81.3647 35.3707 81.162 35.488C80.9593 35.6 80.794 35.768 80.666 35.992C80.5433 36.2107 80.482 36.472 80.482 36.776C80.482 37.08 80.5433 37.3467 80.666 37.576C80.794 37.8053 80.9593 37.9813 81.162 38.104C81.37 38.2213 81.5887 38.28 81.818 38.28C82.0527 38.28 82.2713 38.2213 82.474 38.104C82.6767 37.9867 82.8393 37.816 82.962 37.592C83.09 37.3627 83.154 37.096 83.154 36.792ZM86.1839 35.248C86.3385 35.0347 86.5492 34.8613 86.8159 34.728C87.0879 34.5893 87.3892 34.52 87.7199 34.52C88.1092 34.52 88.4612 34.6133 88.7759 34.8C89.0905 34.9867 89.3385 35.2533 89.5199 35.6C89.7012 35.9413 89.7919 36.3333 89.7919 36.776C89.7919 37.2187 89.7012 37.616 89.5199 37.968C89.3385 38.3147 89.0879 38.5867 88.7679 38.784C88.4532 38.976 88.1039 39.072 87.7199 39.072C87.3785 39.072 87.0745 39.0053 86.8079 38.872C86.5465 38.7387 86.3385 38.568 86.1839 38.36V39H85.2719V33.08H86.1839V35.248ZM88.8639 36.776C88.8639 36.472 88.7999 36.2107 88.6719 35.992C88.5492 35.768 88.3839 35.6 88.1759 35.488C87.9732 35.3707 87.7545 35.312 87.5199 35.312C87.2905 35.312 87.0719 35.3707 86.8639 35.488C86.6612 35.6053 86.4959 35.776 86.3679 36C86.2452 36.224 86.1839 36.488 86.1839 36.792C86.1839 37.096 86.2452 37.3627 86.3679 37.592C86.4959 37.816 86.6612 37.9867 86.8639 38.104C87.0719 38.2213 87.2905 38.28 87.5199 38.28C87.7545 38.28 87.9732 38.2213 88.1759 38.104C88.3839 37.9813 88.5492 37.8053 88.6719 37.576C88.7999 37.3467 88.8639 37.08 88.8639 36.776ZM92.2938 39.072C91.9471 39.072 91.6351 39.0107 91.3578 38.888C91.0858 38.76 90.8698 38.5893 90.7098 38.376C90.5498 38.1573 90.4644 37.9147 90.4538 37.648H91.3978C91.4138 37.8347 91.5018 37.992 91.6618 38.12C91.8271 38.2427 92.0324 38.304 92.2778 38.304C92.5338 38.304 92.7311 38.256 92.8698 38.16C93.0138 38.0587 93.0858 37.9307 93.0858 37.776C93.0858 37.6107 93.0058 37.488 92.8458 37.408C92.6911 37.328 92.4431 37.24 92.1018 37.144C91.7711 37.0533 91.5018 36.9653 91.2938 36.88C91.0858 36.7947 90.9044 36.664 90.7498 36.488C90.6004 36.312 90.5258 36.08 90.5258 35.792C90.5258 35.5573 90.5951 35.344 90.7338 35.152C90.8724 34.9547 91.0698 34.8 91.3258 34.688C91.5871 34.576 91.8858 34.52 92.2218 34.52C92.7231 34.52 93.1258 34.648 93.4298 34.904C93.7391 35.1547 93.9044 35.4987 93.9258 35.936H93.0138C92.9978 35.7387 92.9178 35.5813 92.7738 35.464C92.6298 35.3467 92.4351 35.288 92.1898 35.288C91.9498 35.288 91.7658 35.3333 91.6378 35.424C91.5098 35.5147 91.4458 35.6347 91.4458 35.784C91.4458 35.9013 91.4884 36 91.5738 36.08C91.6591 36.16 91.7631 36.224 91.8858 36.272C92.0084 36.3147 92.1898 36.3707 92.4298 36.44C92.7498 36.5253 93.0111 36.6133 93.2138 36.704C93.4218 36.7893 93.6004 36.9173 93.7498 37.088C93.8991 37.2587 93.9764 37.4853 93.9818 37.768C93.9818 38.0187 93.9124 38.2427 93.7738 38.44C93.6351 38.6373 93.4378 38.792 93.1818 38.904C92.9311 39.016 92.6351 39.072 92.2938 39.072ZM95.3352 39.056C95.1699 39.056 95.0312 39 94.9192 38.888C94.8072 38.776 94.7512 38.6373 94.7512 38.472C94.7512 38.3067 94.8072 38.168 94.9192 38.056C95.0312 37.944 95.1699 37.888 95.3352 37.888C95.4952 37.888 95.6312 37.944 95.7432 38.056C95.8552 38.168 95.9112 38.3067 95.9112 38.472C95.9112 38.6373 95.8552 38.776 95.7432 38.888C95.6312 39 95.4952 39.056 95.3352 39.056ZM100.807 39.056C100.434 39.056 100.098 38.992 99.799 38.864C99.5003 38.7307 99.2657 38.544 99.095 38.304C98.9243 38.064 98.839 37.784 98.839 37.464H99.815C99.8363 37.704 99.9297 37.9013 100.095 38.056C100.266 38.2107 100.503 38.288 100.807 38.288C101.122 38.288 101.367 38.2133 101.543 38.064C101.719 37.9093 101.807 37.712 101.807 37.472C101.807 37.2853 101.751 37.1333 101.639 37.016C101.532 36.8987 101.396 36.808 101.231 36.744C101.071 36.68 100.847 36.6107 100.559 36.536C100.196 36.44 99.9003 36.344 99.671 36.248C99.447 36.1467 99.255 35.992 99.095 35.784C98.935 35.576 98.855 35.2987 98.855 34.952C98.855 34.632 98.935 34.352 99.095 34.112C99.255 33.872 99.479 33.688 99.767 33.56C100.055 33.432 100.388 33.368 100.767 33.368C101.306 33.368 101.746 33.504 102.087 33.776C102.434 34.0427 102.626 34.4107 102.663 34.88H101.655C101.639 34.6773 101.543 34.504 101.367 34.36C101.191 34.216 100.959 34.144 100.671 34.144C100.41 34.144 100.196 34.2107 100.031 34.344C99.8657 34.4773 99.783 34.6693 99.783 34.92C99.783 35.0907 99.8337 35.232 99.935 35.344C100.042 35.4507 100.175 35.536 100.335 35.6C100.495 35.664 100.714 35.7333 100.991 35.808C101.359 35.9093 101.658 36.0107 101.887 36.112C102.122 36.2133 102.319 36.3707 102.479 36.584C102.644 36.792 102.727 37.072 102.727 37.424C102.727 37.7067 102.65 37.9733 102.495 38.224C102.346 38.4747 102.124 38.6773 101.831 38.832C101.543 38.9813 101.202 39.056 100.807 39.056ZM109.139 34.52C109.486 34.52 109.795 34.592 110.067 34.736C110.344 34.88 110.56 35.0933 110.715 35.376C110.875 35.6587 110.955 36 110.955 36.4V39H110.051V36.536C110.051 36.1413 109.952 35.84 109.755 35.632C109.558 35.4187 109.288 35.312 108.947 35.312C108.606 35.312 108.334 35.4187 108.131 35.632C107.934 35.84 107.835 36.1413 107.835 36.536V39H106.931V36.536C106.931 36.1413 106.832 35.84 106.635 35.632C106.438 35.4187 106.168 35.312 105.827 35.312C105.486 35.312 105.214 35.4187 105.011 35.632C104.814 35.84 104.715 36.1413 104.715 36.536V39H103.803V34.592H104.715V35.096C104.864 34.9147 105.054 34.7733 105.283 34.672C105.512 34.5707 105.758 34.52 106.019 34.52C106.371 34.52 106.686 34.5947 106.963 34.744C107.24 34.8933 107.454 35.1093 107.603 35.392C107.736 35.1253 107.944 34.9147 108.227 34.76C108.51 34.6 108.814 34.52 109.139 34.52ZM111.812 36.776C111.812 36.3333 111.902 35.9413 112.084 35.6C112.27 35.2587 112.521 34.9947 112.836 34.808C113.156 34.616 113.508 34.52 113.892 34.52C114.238 34.52 114.54 34.5893 114.796 34.728C115.057 34.8613 115.265 35.0293 115.42 35.232V34.592H116.34V39H115.42V38.344C115.265 38.552 115.054 38.7253 114.788 38.864C114.521 39.0027 114.217 39.072 113.876 39.072C113.497 39.072 113.15 38.976 112.836 38.784C112.521 38.5867 112.27 38.3147 112.084 37.968C111.902 37.616 111.812 37.2187 111.812 36.776ZM115.42 36.792C115.42 36.488 115.356 36.224 115.228 36C115.105 35.776 114.942 35.6053 114.74 35.488C114.537 35.3707 114.318 35.312 114.084 35.312C113.849 35.312 113.63 35.3707 113.428 35.488C113.225 35.6 113.06 35.768 112.932 35.992C112.809 36.2107 112.748 36.472 112.748 36.776C112.748 37.08 112.809 37.3467 112.932 37.576C113.06 37.8053 113.225 37.9813 113.428 38.104C113.636 38.2213 113.854 38.28 114.084 38.28C114.318 38.28 114.537 38.2213 114.74 38.104C114.942 37.9867 115.105 37.816 115.228 37.592C115.356 37.3627 115.42 37.096 115.42 36.792ZM118.45 35.232C118.583 35.008 118.759 34.8347 118.978 34.712C119.202 34.584 119.466 34.52 119.77 34.52V35.464H119.538C119.18 35.464 118.908 35.5547 118.722 35.736C118.54 35.9173 118.45 36.232 118.45 36.68V39H117.538V34.592H118.45V35.232ZM121.672 35.336V37.776C121.672 37.9413 121.709 38.0613 121.784 38.136C121.864 38.2053 121.997 38.24 122.184 38.24H122.744V39H122.024C121.613 39 121.298 38.904 121.08 38.712C120.861 38.52 120.752 38.208 120.752 37.776V35.336H120.232V34.592H120.752V33.496H121.672V34.592H122.744V35.336H121.672ZM127.624 36.688C127.624 36.8533 127.614 37.0027 127.592 37.136H124.224C124.251 37.488 124.382 37.7707 124.616 37.984C124.851 38.1973 125.139 38.304 125.48 38.304C125.971 38.304 126.318 38.0987 126.52 37.688H127.504C127.371 38.0933 127.128 38.4267 126.776 38.688C126.43 38.944 125.998 39.072 125.48 39.072C125.059 39.072 124.68 38.9787 124.344 38.792C124.014 38.6 123.752 38.3333 123.56 37.992C123.374 37.6453 123.28 37.2453 123.28 36.792C123.28 36.3387 123.371 35.9413 123.552 35.6C123.739 35.2533 123.998 34.9867 124.328 34.8C124.664 34.6133 125.048 34.52 125.48 34.52C125.896 34.52 126.267 34.6107 126.592 34.792C126.918 34.9733 127.171 35.2293 127.352 35.56C127.534 35.8853 127.624 36.2613 127.624 36.688ZM126.672 36.4C126.667 36.064 126.547 35.7947 126.312 35.592C126.078 35.3893 125.787 35.288 125.44 35.288C125.126 35.288 124.856 35.3893 124.632 35.592C124.408 35.7893 124.275 36.0587 124.232 36.4H126.672ZM129.434 35.232C129.567 35.008 129.743 34.8347 129.962 34.712C130.186 34.584 130.45 34.52 130.754 34.52V35.464H130.522C130.165 35.464 129.893 35.5547 129.706 35.736C129.525 35.9173 129.434 36.232 129.434 36.68V39H128.522V34.592H129.434V35.232ZM133.366 36.208C133.366 35.664 133.492 35.176 133.742 34.744C133.998 34.312 134.342 33.976 134.774 33.736C135.212 33.4907 135.689 33.368 136.206 33.368C136.798 33.368 137.324 33.5147 137.782 33.808C138.246 34.096 138.582 34.5067 138.79 35.04H137.694C137.55 34.7467 137.35 34.528 137.094 34.384C136.838 34.24 136.542 34.168 136.206 34.168C135.838 34.168 135.51 34.2507 135.222 34.416C134.934 34.5813 134.708 34.8187 134.542 35.128C134.382 35.4373 134.302 35.7973 134.302 36.208C134.302 36.6187 134.382 36.9787 134.542 37.288C134.708 37.5973 134.934 37.8373 135.222 38.008C135.51 38.1733 135.838 38.256 136.206 38.256C136.542 38.256 136.838 38.184 137.094 38.04C137.35 37.896 137.55 37.6773 137.694 37.384H138.79C138.582 37.9173 138.246 38.328 137.782 38.616C137.324 38.904 136.798 39.048 136.206 39.048C135.684 39.048 135.206 38.928 134.774 38.688C134.342 38.4427 133.998 38.104 133.742 37.672C133.492 37.24 133.366 36.752 133.366 36.208ZM139.554 36.776C139.554 36.3333 139.644 35.9413 139.826 35.6C140.012 35.2587 140.263 34.9947 140.578 34.808C140.898 34.616 141.25 34.52 141.634 34.52C141.98 34.52 142.282 34.5893 142.538 34.728C142.799 34.8613 143.007 35.0293 143.162 35.232V34.592H144.082V39H143.162V38.344C143.007 38.552 142.796 38.7253 142.53 38.864C142.263 39.0027 141.959 39.072 141.618 39.072C141.239 39.072 140.892 38.976 140.578 38.784C140.263 38.5867 140.012 38.3147 139.826 37.968C139.644 37.616 139.554 37.2187 139.554 36.776ZM143.162 36.792C143.162 36.488 143.098 36.224 142.97 36C142.847 35.776 142.684 35.6053 142.482 35.488C142.279 35.3707 142.06 35.312 141.826 35.312C141.591 35.312 141.372 35.3707 141.17 35.488C140.967 35.6 140.802 35.768 140.674 35.992C140.551 36.2107 140.49 36.472 140.49 36.776C140.49 37.08 140.551 37.3467 140.674 37.576C140.802 37.8053 140.967 37.9813 141.17 38.104C141.378 38.2213 141.596 38.28 141.826 38.28C142.06 38.28 142.279 38.2213 142.482 38.104C142.684 37.9867 142.847 37.816 142.97 37.592C143.098 37.3627 143.162 37.096 143.162 36.792ZM146.192 35.232C146.325 35.008 146.501 34.8347 146.72 34.712C146.944 34.584 147.208 34.52 147.512 34.52V35.464H147.28C146.922 35.464 146.65 35.5547 146.464 35.736C146.282 35.9173 146.192 36.232 146.192 36.68V39H145.28V34.592H146.192V35.232ZM152.39 36.688C152.39 36.8533 152.379 37.0027 152.358 37.136H148.99C149.017 37.488 149.147 37.7707 149.382 37.984C149.617 38.1973 149.905 38.304 150.246 38.304C150.737 38.304 151.083 38.0987 151.286 37.688H152.27C152.137 38.0933 151.894 38.4267 151.542 38.688C151.195 38.944 150.763 39.072 150.246 39.072C149.825 39.072 149.446 38.9787 149.11 38.792C148.779 38.6 148.518 38.3333 148.326 37.992C148.139 37.6453 148.046 37.2453 148.046 36.792C148.046 36.3387 148.137 35.9413 148.318 35.6C148.505 35.2533 148.763 34.9867 149.094 34.8C149.43 34.6133 149.814 34.52 150.246 34.52C150.662 34.52 151.033 34.6107 151.358 34.792C151.683 34.9733 151.937 35.2293 152.118 35.56C152.299 35.8853 152.39 36.2613 152.39 36.688ZM151.438 36.4C151.433 36.064 151.313 35.7947 151.078 35.592C150.843 35.3893 150.553 35.288 150.206 35.288C149.891 35.288 149.622 35.3893 149.398 35.592C149.174 35.7893 149.041 36.0587 148.998 36.4H151.438ZM153.656 39.056C153.49 39.056 153.352 39 153.24 38.888C153.128 38.776 153.072 38.6373 153.072 38.472C153.072 38.3067 153.128 38.168 153.24 38.056C153.352 37.944 153.49 37.888 153.656 37.888C153.816 37.888 153.952 37.944 154.064 38.056C154.176 38.168 154.232 38.3067 154.232 38.472C154.232 38.6373 154.176 38.776 154.064 38.888C153.952 39 153.816 39.056 153.656 39.056Z" fill="black"/>
</svg>
